<?xml version="1.0" standalone="no"?>
<!DOCTYPE svg PUBLIC "-//W3C//DTD SVG 20010904//EN"
 "http://www.w3.org/TR/2001/REC-SVG-20010904/DTD/svg10.dtd">
<svg version="1.0" xmlns="http://www.w3.org/2000/svg"
 width="700.000000pt" height="700.000000pt" viewBox="0 0 700.000000 700.000000"
 preserveAspectRatio="xMidYMid meet">
<metadata>
Created by potrace 1.14, written by Peter Selinger 2001-2017
</metadata>
<g transform="translate(0.000000,700.000000) scale(0.100000,-0.100000)"
fill="#000000" stroke="none">
<path d="M1230 6408 c-145 -25 -299 -169 -341 -318 -10 -36 -13 -508 -14
-2285 0 -1232 3 -2258 7 -2280 24 -113 130 -253 235 -307 97 -51 93 -51 824
-52 l687 -1 436 -436 436 -437 436 437 437 436 676 1 c372 0 693 4 713 8 142
27 286 155 340 301 l21 60 2 2240 c1 1634 -2 2254 -10 2291 -19 83 -55 145
-124 214 -63 62 -143 111 -207 126 -41 10 -4499 12 -4554 2z m4457 -2615 l-2
-2188 -742 0 -743 0 -350 -350 -350 -350 -350 350 -350 350 -738 1 c-405 1
-740 2 -743 3 -7 1 -9 4352 -2 4364 2 4 987 7 2188 7 l2183 0 -1 -2187z"/>
<path d="M3340 5593 c-75 -11 -193 -37 -248 -55 -179 -58 -368 -194 -483 -349
-51 -70 -139 -229 -139 -252 0 -7 60 -36 133 -66 72 -29 150 -62 172 -71 71
-32 74 -31 117 40 137 225 338 340 593 342 139 1 247 -26 335 -86 52 -35 55
-37 96 -91 44 -57 74 -144 77 -228 6 -129 -24 -230 -106 -353 -56 -82 -77
-107 -256 -289 -236 -240 -311 -351 -357 -530 -12 -46 -24 -124 -29 -195 -8
-97 -8 -85 -6 -127 l1 -33 205 0 c113 0 205 3 206 8 0 4 2 36 5 72 5 92 32
205 64 275 37 82 130 204 248 327 189 196 277 305 336 418 34 63 73 160 81
197 2 10 8 38 14 63 16 69 8 303 -13 385 -67 257 -248 454 -502 544 -44 15
-82 28 -87 28 -11 1 -68 12 -97 19 -29 7 -323 12 -360 7z"/>
<path d="M3399 2716 c-110 -29 -189 -129 -194 -249 -6 -117 44 -206 146 -261
43 -24 65 -29 123 -30 118 0 213 59 259 164 27 60 27 160 0 222 -55 122 -199
189 -334 154z"/>
</g>
</svg>
